<?xml version="1.0" ?><svg id="icons" style="enable-background:new 0 0 96 96;" version="1.1" viewBox="0 0 96 96" xml:space="preserve" xmlns="http://www.w3.org/2000/svg" xmlns:xlink="http://www.w3.org/1999/xlink"><style type="text/css">
	.st0{fill:#E6E6E7;}
	.st1{opacity:0.2;fill:#21264C;}
	.st2{opacity:0.15;fill:#21264C;}
	.st3{fill:#21264C;}
	.st4{fill:#F1D73D;}
	.st5{fill:#CF4239;}
	.st6{opacity:0.3;fill:#FFFFFF;}
</style><g id="grey"/><g id="colored"><g id="reload_x5F_2_1_"><path class="st4" d="M48,12c9.9,0,18.9,4,25.4,10.6L60,36h36V0L81.9,14.1C73.3,5.4,61.3,0,48,0C21.5,0,0,21.5,0,48    h12C12,28.1,28.1,12,48,12z M96,47.8V48H84v0c0,19.9-16.2,36-36,36c-9.9,0-18.9-4-25.4-10.6L36,60H0v36l14.1-14.1    C22.8,90.6,34.7,96,48,96c26.5,0,48-21.5,48-48C96,47.9,96,47.9,96,47.8z" id="bck_22_"/><path class="st1" d="M96,47.8V48H84v0c0,19.9-16.2,36-36,36c-9.9,0-18.9-4-25.4-10.6L36,60L12,72L0,60l0,36    l14.1-14.1c8.6,8.6,20.5,14,33.6,14.1h0.6C74.7,95.8,96,74.4,96,48v0C96,47.9,96,47.9,96,47.8z M84,24L60,36l36,0L84,24z" id="shadow_29_"/></g></g></svg>