<?xml version="1.0" encoding="UTF-8" standalone="no"?>
<svg
   xmlns:dc="http://purl.org/dc/elements/1.1/"
   xmlns:cc="http://creativecommons.org/ns#"
   xmlns:rdf="http://www.w3.org/1999/02/22-rdf-syntax-ns#"
   xmlns:svg="http://www.w3.org/2000/svg"
   xmlns="http://www.w3.org/2000/svg"
   xmlns:sodipodi="http://sodipodi.sourceforge.net/DTD/sodipodi-0.dtd"
   xmlns:inkscape="http://www.inkscape.org/namespaces/inkscape"
   height="1792"
   viewBox="0 0 1792 1792"
   width="1792"
   id="svg2"
   version="1.1"
   inkscape:version="0.91 r13725"
   sodipodi:docname="recycle-phone.svg"
   inkscape:export-filename="D:\Documents\2.Studium\lectures\FS18_Inf\biots\template\assets\img\icon\recycle-phone.png"
   inkscape:export-xdpi="3.2142856"
   inkscape:export-ydpi="3.2142856">
  <metadata
     id="metadata10">
    <rdf:RDF>
      <cc:Work
         rdf:about="">
        <dc:format>image/svg+xml</dc:format>
        <dc:type
           rdf:resource="http://purl.org/dc/dcmitype/StillImage" />
        <dc:title></dc:title>
      </cc:Work>
    </rdf:RDF>
  </metadata>
  <defs
     id="defs8" />
  <sodipodi:namedview
     pagecolor="#ffffff"
     bordercolor="#666666"
     borderopacity="1"
     objecttolerance="10"
     gridtolerance="10"
     guidetolerance="10"
     inkscape:pageopacity="0"
     inkscape:pageshadow="2"
     inkscape:window-width="1920"
     inkscape:window-height="1027"
     id="namedview6"
     showgrid="false"
     inkscape:zoom="0.18624688"
     inkscape:cx="611.82893"
     inkscape:cy="988.44117"
     inkscape:window-x="-8"
     inkscape:window-y="-8"
     inkscape:window-maximized="1"
     inkscape:current-layer="svg2" />
  <path
     d="M836 1169l-15 368-2 22-420-29q-36-3-67-31.5t-47-65.5q-11-27-14.5-55t4-65 12-55 21.5-64 19-53q78 12 509 28zm-387-586l180 379-147-92q-63 72-111.5 144.5t-72.5 125-39.5 94.5-18.5 63l-4 21-190-357q-17-26-18-56t6-47l8-18q35-63 114-188l-140-86zm1231 517l-188 359q-12 29-36.5 46.5t-43.5 20.5l-18 4q-71 7-219 12l8 164-230-367 211-362 7 173q170 16 283 5t170-33zm-785-924q-47 63-265 435l-317-187-19-12 225-356q20-31 60-45t80-10q24 2 48.5 12t42 21 41.5 33 36 34.5 36 39.5 32 35zm655 307l212 363q18 37 12.5 76t-27.5 74q-13 20-33 37t-38 28-48.5 22-47 16-51.5 14-46 12q-34-72-265-436l313-195zm-143-226l142-83-220 373-419-20 151-86q-34-89-75-166t-75.5-123.5-64.5-80-47-46.5l-17-13 405 1q31-3 58 10.5t39 28.5l11 15q39 61 112 190z"
     id="path4" />
  <path
     inkscape:connector-curvature="0"
     d="m 1138.9066,939.08806 q 0,9.29073 -3.441,24.25914 -3.4411,14.9684 -7.2262,23.57094 -7.2261,17.20506 -41.9803,36.47476 -32.3455,17.5491 -64.0029,17.5491 -9.2907,0 -18.0653,-1.2043 -8.77457,-1.2044 -19.78577,-4.3013 -11.0112,-3.0969 -16.3448,-4.9895 -5.3336,-1.8925 -19.0976,-7.054 -13.7641,-5.1616 -16.861,-6.1939 -33.7219,-12.0435 -60.2177,-28.56035 -44.045,-27.18401 -91.0148,-74.15383 -46.9698,-46.96982 -74.1538,-91.01478 -16.5169,-26.4958 -28.5604,-60.21772 -1.0323,-3.09692 -6.1938,-16.86097 -5.1616,-13.76405 -7.0541,-19.09762 -1.8926,-5.33357 -4.9895,-16.34481 -3.0969,-11.01124 -4.3012,-19.78582 -1.2044,-8.77458 -1.2044,-18.06531 0,-31.65732 17.5492,-64.00284 19.2696,-34.75422 36.4747,-41.98035 8.6025,-3.78511 23.5709,-7.22613 14.9684,-3.44101 24.2592,-3.44101 4.8174,0 7.2261,1.0323 6.1938,2.06461 18.2374,26.1517 3.7851,6.53792 10.323,18.58147 6.5379,12.04354 12.0435,21.85043 5.5057,9.80688 10.6672,18.40941 1.0323,1.37641 6.0218,8.60254 4.9894,7.22612 7.3981,12.21559 2.4087,4.98947 2.4087,9.80689 0,6.88202 -9.8068,17.20506 -9.8069,10.32304 -21.3343,18.92557 -11.5274,8.60253 -21.3343,18.23736 -9.8069,9.63484 -9.8069,15.82866 0,3.09691 1.7205,7.74228 1.7205,4.64537 2.9249,7.05408 1.2043,2.40871 4.8174,8.25843 3.6131,5.84972 3.9572,6.53792 26.1517,47.14187 59.8736,80.8638 33.7219,33.72192 80.8638,59.87362 0.6882,0.3441 6.5379,3.95716 5.8497,3.61307 8.2584,4.81742 2.4087,1.20435 7.0541,2.92486 4.6454,1.72051 7.7423,1.72051 6.1938,0 15.8286,-9.80689 9.6349,-9.80688 18.2374,-21.33428 8.6025,-11.52739 18.92557,-21.33428 10.323,-9.80688 17.205,-9.80688 4.8175,0 9.8069,2.40871 4.9895,2.4087 12.2156,7.39817 7.2262,4.98947 8.6026,6.02178 8.6025,5.16152 18.4094,10.66714 9.8069,5.50562 21.8504,12.04354 12.0436,6.53792 18.5815,10.32304 24.0871,12.04354 26.1517,18.23736 1.0323,2.40871 1.0323,7.22613 z"
     id="path4-6" />
</svg>
